<?xml version="1.0" standalone="no"?>
<!DOCTYPE svg PUBLIC "-//W3C//DTD SVG 20010904//EN"
 "http://www.w3.org/TR/2001/REC-SVG-20010904/DTD/svg10.dtd">
<svg version="1.0" xmlns="http://www.w3.org/2000/svg"
 width="978.000000pt" height="1024.000000pt" viewBox="0 0 978.000000 1024.000000"
 preserveAspectRatio="xMidYMid meet">

<g transform="translate(0.000000,1024.000000) scale(0.100000,-0.100000)"
fill="#000000" stroke="none">
<path d="M3295 10223 c-142 -30 -247 -88 -370 -204 l-70 -66 -49 55 c-139 153
-325 232 -518 218 -441 -32 -765 -343 -858 -823 -48 -252 -50 -509 -5 -978 14
-143 25 -290 25 -326 0 -177 98 -316 268 -379 87 -33 205 -26 293 17 82 40
141 103 182 191 29 63 31 74 32 187 0 66 -8 181 -17 255 -42 328 -46 625 -13
844 18 115 31 158 54 187 l19 23 21 -34 c39 -64 72 -199 107 -435 12 -79 18
-223 23 -510 l6 -400 26 -55 c14 -31 41 -73 59 -93 l33 -38 -7 -102 c-9 -132
-9 -574 -1 -663 l7 -69 -99 -23 c-99 -24 -188 -63 -197 -88 -3 -8 4 -19 16
-25 42 -23 458 7 485 34 4 5 -7 34 -24 65 -38 69 -69 177 -83 292 -11 91 -14
438 -4 488 l6 30 42 -15 c57 -22 208 -21 260 1 22 9 41 14 44 11 2 -2 7 -96
10 -207 7 -299 -14 -454 -83 -593 -18 -38 -30 -74 -26 -78 15 -15 81 -25 229
-37 231 -18 327 5 240 58 -35 21 -131 53 -213 72 l-50 11 3 269 c2 148 -1 337
-7 420 l-10 151 36 47 c20 26 42 61 49 77 41 98 74 305 94 585 22 314 55 521
111 697 45 141 75 203 99 203 25 0 42 -34 71 -145 23 -84 24 -107 24 -365 -1
-206 -7 -335 -24 -515 -12 -132 -23 -285 -24 -340 -1 -93 1 -105 30 -167 39
-83 107 -150 193 -192 59 -28 74 -31 165 -31 87 0 107 3 155 26 111 53 196
160 220 275 5 27 21 195 36 374 68 829 16 1212 -209 1538 -28 40 -73 93 -100
118 -167 150 -478 227 -712 177z m-524 -871 c24 -21 32 -38 36 -75 5 -43 3
-49 -30 -82 -27 -27 -43 -35 -72 -35 -68 0 -115 45 -115 110 0 96 109 146 181
82z m273 4 c44 -18 66 -52 66 -99 0 -51 -31 -94 -76 -106 -74 -20 -144 31
-144 104 0 40 28 85 63 100 41 18 50 18 91 1z"/>
<path d="M2686 9284 c-21 -21 -20 -37 3 -58 25 -23 59 -13 67 20 12 46 -37 72
-70 38z"/>
<path d="M2948 9279 c-22 -12 -23 -52 -3 -69 8 -7 25 -10 40 -6 20 5 25 13 25
36 0 19 -7 33 -19 40 -23 12 -22 12 -43 -1z"/>
</g>
</svg>
