<?xml version="1.0" standalone="no"?>
<!DOCTYPE svg PUBLIC "-//W3C//DTD SVG 20010904//EN"
 "http://www.w3.org/TR/2001/REC-SVG-20010904/DTD/svg10.dtd">
<svg version="1.0" xmlns="http://www.w3.org/2000/svg"
 width="978.000000pt" height="1024.000000pt" viewBox="0 0 978.000000 1024.000000"
 preserveAspectRatio="xMidYMid meet">

<g transform="translate(0.000000,1024.000000) scale(0.100000,-0.100000)"
fill="#000000" stroke="none">
<path d="M3295 10223 c-142 -30 -247 -88 -370 -204 l-70 -66 -49 55 c-139 153
-325 232 -518 218 -441 -32 -765 -343 -858 -823 -48 -252 -50 -509 -5 -978 14
-143 25 -290 25 -326 0 -177 98 -316 268 -379 87 -33 205 -26 293 17 82 40
141 103 182 191 29 63 31 74 32 187 0 66 -8 181 -17 255 -42 328 -46 625 -13
844 18 115 31 158 54 187 l19 23 21 -34 c39 -64 72 -199 107 -435 12 -79 18
-223 23 -510 l6 -400 26 -55 c14 -31 41 -73 59 -93 l33 -38 -7 -102 c-9 -132
-9 -574 -1 -663 l7 -69 -99 -23 c-99 -24 -188 -63 -197 -88 -3 -8 4 -19 16
-25 42 -23 458 7 485 34 4 5 -7 34 -24 65 -38 69 -69 177 -83 292 -11 91 -14
438 -4 488 l6 30 42 -15 c57 -22 208 -21 260 1 22 9 41 14 44 11 2 -2 7 -96
10 -207 7 -299 -14 -454 -83 -593 -18 -38 -30 -74 -26 -78 15 -15 81 -25 229
-37 231 -18 327 5 240 58 -35 21 -131 53 -213 72 l-50 11 3 269 c2 148 -1 337
-7 420 l-10 151 36 47 c20 26 42 61 49 77 41 98 74 305 94 585 22 314 55 521
111 697 45 141 75 203 99 203 25 0 42 -34 71 -145 23 -84 24 -107 24 -365 -1
-206 -7 -335 -24 -515 -12 -132 -23 -285 -24 -340 -1 -93 1 -105 30 -167 39
-83 107 -150 193 -192 59 -28 74 -31 165 -31 87 0 107 3 155 26 111 53 196
160 220 275 5 27 21 195 36 374 68 829 16 1212 -209 1538 -28 40 -73 93 -100
118 -167 150 -478 227 -712 177z m-524 -871 c24 -21 32 -38 36 -75 5 -43 3
-49 -30 -82 -27 -27 -43 -35 -72 -35 -68 0 -115 45 -115 110 0 96 109 146 181
82z m273 4 c44 -18 66 -52 66 -99 0 -51 -31 -94 -76 -106 -74 -20 -144 31
-144 104 0 40 28 85 63 100 41 18 50 18 91 1z"/>
<path d="M2686 9284 c-21 -21 -20 -37 3 -58 25 -23 59 -13 67 20 12 46 -37 72
-70 38z"/>
<path d="M2948 9279 c-22 -12 -23 -52 -3 -69 8 -7 25 -10 40 -6 20 5 25 13 25
36 0 19 -7 33 -19 40 -23 12 -22 12 -43 -1z"/>
<path d="M6216 10224 c-167 -40 -311 -201 -351 -392 -8 -37 -24 -170 -35 -297
-18 -217 -25 -344 -35 -665 -5 -165 12 -633 26 -715 22 -132 109 -253 219
-303 72 -33 184 -41 262 -18 114 33 218 128 258 234 22 57 22 59 10 377 -7
176 -10 370 -8 430 l3 110 54 -110 c55 -114 194 -435 286 -661 70 -171 120
-275 168 -352 l39 -62 1 -364 2 -363 -93 -23 c-105 -25 -195 -67 -200 -92 -5
-28 67 -41 183 -34 138 9 284 26 311 36 l23 9 -38 75 c-58 114 -91 301 -91
524 l0 114 48 -40 c59 -50 132 -93 197 -117 76 -28 75 -26 69 -124 -3 -47 -1
-158 4 -246 5 -88 8 -162 7 -163 -2 -2 -46 -14 -99 -27 -117 -29 -196 -68
-196 -95 0 -13 9 -22 26 -26 63 -16 457 16 480 38 3 4 -11 40 -30 81 -49 100
-74 223 -82 389 l-7 137 29 6 c197 41 333 150 425 341 69 146 93 442 70 874
-23 410 -25 791 -7 930 19 149 11 223 -35 317 -97 201 -359 259 -559 125 -64
-44 -115 -107 -130 -163 -25 -93 -41 -281 -47 -546 l-6 -283 -94 192 c-119
243 -183 350 -309 518 -170 226 -262 316 -390 379 -119 58 -240 74 -358 45z
m-138 -1629 c29 -35 30 -102 1 -138 -27 -36 -89 -54 -126 -38 -88 38 -89 168
-1 205 41 18 97 5 126 -29z m279 5 c89 -54 49 -200 -54 -200 -70 0 -113 41
-113 110 0 92 87 139 167 90z"/>
<path d="M5982 8538 c-29 -29 -3 -72 40 -66 19 2 23 9 23 38 0 30 -4 35 -25
38 -14 2 -31 -3 -38 -10z"/>
<path d="M6236 8524 c-21 -21 -20 -37 3 -58 25 -23 59 -13 67 20 12 46 -37 72
-70 38z"/>
<path d="M6730 6111 c-333 -71 -547 -269 -620 -574 -25 -102 -27 -298 -4 -442
21 -138 33 -394 34 -688 l0 -248 -57 32 c-256 144 -409 314 -437 485 -7 40 -6
43 37 78 24 19 69 47 101 62 59 27 68 47 23 52 -26 3 -97 -27 -131 -57 -18
-15 -19 -15 -12 4 5 11 21 65 38 120 32 112 35 188 6 193 -24 5 -44 -40 -66
-149 l-19 -94 -12 45 c-29 109 -68 210 -81 210 -4 0 -13 -7 -20 -15 -15 -18
-1 -88 35 -177 14 -34 25 -65 25 -70 0 -4 -19 11 -42 34 -42 40 -124 98 -140
98 -4 0 -8 -10 -8 -22 0 -30 88 -129 150 -169 48 -31 49 -33 60 -103 32 -197
74 -290 175 -391 70 -70 180 -149 306 -218 l66 -37 6 -293 c9 -366 17 -402
123 -517 l41 -45 6 -217 5 -216 -76 -17 c-91 -20 -188 -61 -197 -83 -12 -31
13 -37 153 -35 123 2 306 23 320 37 3 3 -9 34 -26 69 -47 95 -82 257 -82 379
0 37 1 37 27 27 41 -15 162 -12 212 6 24 8 45 14 46 13 2 -2 5 -109 7 -238 l5
-235 -91 -22 c-111 -28 -181 -62 -181 -88 0 -27 52 -35 185 -28 108 5 277 27
287 37 3 3 -8 34 -25 69 -17 35 -41 101 -52 148 -22 90 -45 366 -35 407 3 14
22 43 41 65 18 22 44 66 56 96 22 54 22 65 19 344 l-3 287 64 0 c227 0 475 75
658 200 173 117 326 333 390 550 31 105 39 321 16 441 -80 424 -379 762 -771
873 -49 13 -119 30 -155 35 -100 16 -283 12 -380 -8z m353 -769 c60 -33 146
-124 177 -188 32 -66 38 -150 14 -199 -22 -48 -86 -109 -140 -135 -55 -27
-212 -49 -223 -31 -5 7 -11 56 -14 110 -4 53 -16 164 -27 245 -28 207 -29 201
23 220 56 20 128 12 190 -22z m-715 -806 c33 -17 55 -55 55 -96 0 -118 -157
-151 -208 -44 -45 95 58 189 153 140z m322 -15 c52 -52 52 -113 -2 -163 -48
-44 -121 -35 -165 22 -7 8 -13 35 -13 59 0 36 6 49 34 77 46 46 104 48 146 5z"/>
<path d="M6300 4455 c-7 -8 -10 -25 -6 -40 5 -20 13 -25 36 -25 36 0 56 30 40
60 -13 24 -52 26 -70 5z"/>
<path d="M6556 4448 c-16 -23 -7 -54 19 -64 22 -9 55 15 55 39 0 47 -48 63
-74 25z"/>
<path d="M2585 5926 c-197 -46 -318 -117 -481 -280 -130 -130 -214 -252 -304
-437 -117 -245 -169 -446 -177 -690 -15 -437 137 -763 468 -1009 77 -57 243
-147 310 -169 l35 -11 -3 -63 c-14 -251 -41 -385 -103 -512 -22 -43 -36 -83
-32 -87 11 -11 223 -46 329 -54 155 -12 206 13 128 63 -37 24 -205 83 -237 83
-17 0 -19 5 -14 38 14 85 26 245 26 363 0 69 2 128 5 131 3 3 27 1 53 -5 26
-5 113 -10 195 -10 l147 0 0 -43 c0 -70 -38 -267 -65 -340 -14 -38 -37 -86
-50 -106 -14 -21 -25 -42 -25 -47 0 -19 135 -45 310 -61 143 -12 192 -6 188
24 -4 27 -106 79 -208 105 -68 17 -75 21 -74 43 1 12 7 76 13 140 6 64 11 156
11 205 0 48 4 94 8 100 5 7 39 24 78 37 230 78 423 229 570 447 164 242 266
487 311 752 24 139 24 408 0 532 -25 128 -81 299 -125 377 -142 256 -414 417
-796 473 -157 23 -415 29 -491 11z m392 -766 c223 -47 276 -110 277 -330 0
-125 -10 -185 -56 -330 -66 -206 -179 -369 -299 -430 -123 -63 -293 -18 -413
110 -69 74 -100 146 -104 247 -11 241 150 624 302 719 57 36 166 41 293 14z
m516 -244 c43 -18 67 -46 74 -89 12 -79 -74 -147 -147 -117 -96 40 -94 181 3
209 18 5 33 10 35 10 1 1 17 -5 35 -13z m343 -40 c28 -28 34 -42 34 -76 0 -34
-6 -48 -34 -76 -28 -28 -42 -34 -76 -34 -34 0 -48 6 -76 34 -28 28 -34 42 -34
76 0 34 6 48 34 76 28 28 42 34 76 34 34 0 48 -6 76 -34z"/>
<path d="M3448 4830 c-20 -15 -21 -21 -10 -44 22 -49 91 -25 78 28 -8 31 -40
39 -68 16z"/>
<path d="M3702 4818 c-34 -34 6 -90 48 -68 35 19 20 80 -20 80 -9 0 -21 -5
-28 -12z"/>
<path d="M0 980 l0 -980 4890 0 4890 0 0 980 0 980 -4890 0 -4890 0 0 -980z
m2831 791 c16 -13 23 -29 23 -54 0 -46 -18 -66 -65 -73 -35 -6 -38 -9 -41 -43
-3 -31 -6 -36 -28 -36 l-25 0 -3 113 -3 112 60 0 c43 0 65 -5 82 -19z m129
-96 l0 -115 -25 0 -25 0 0 115 0 115 25 0 25 0 0 -115z m204 94 c34 -27 35
-59 1 -59 -13 0 -28 7 -33 16 -5 9 -18 14 -28 12 -27 -5 -34 -112 -8 -122 9
-4 24 0 34 9 22 20 60 20 60 0 0 -9 -11 -27 -25 -40 -30 -31 -73 -32 -109 -4
-24 19 -26 27 -26 93 0 59 4 76 20 94 27 28 79 29 114 1z m136 -20 l0 -42 22
29 c37 47 45 54 71 54 37 0 37 -8 1 -48 -19 -20 -34 -40 -34 -44 0 -4 16 -33
34 -64 37 -61 38 -74 3 -74 -16 0 -29 13 -47 45 -14 25 -28 45 -32 45 -7 0
-14 -20 -20 -65 -2 -12 -12 -21 -26 -23 -22 -3 -22 -2 -22 112 l0 116 25 0
c23 0 25 -4 25 -41z m411 -69 c21 -58 39 -108 39 -112 0 -5 -12 -8 -26 -8 -17
0 -28 6 -31 20 -4 16 -14 20 -43 20 -29 0 -39 -4 -43 -20 -5 -20 -41 -28 -51
-12 -2 4 11 51 30 103 19 51 37 100 39 107 3 7 14 12 26 10 17 -2 29 -24 60
-108z m334 85 c0 -17 -8 -20 -47 -23 -40 -3 -48 -6 -48 -23 0 -16 7 -19 40
-19 36 0 40 -2 40 -25 0 -22 -4 -25 -39 -25 -40 0 -40 0 -43 -42 -2 -36 -7
-44 -25 -46 -23 -3 -23 -2 -23 113 l0 116 73 -3 c64 -3 72 -5 72 -23z m141 8
c3 -10 21 -58 40 -107 18 -49 31 -93 28 -98 -10 -16 -46 -8 -51 12 -4 16 -14
20 -43 20 -29 0 -39 -4 -43 -20 -3 -14 -14 -20 -31 -20 -28 0 -31 7 -17 42 10
24 44 115 60 161 12 31 48 37 57 10z m248 -4 c34 -27 35 -59 1 -59 -13 0 -28
7 -33 16 -5 9 -18 14 -28 12 -27 -5 -34 -112 -8 -122 9 -4 24 0 34 9 22 20 60
20 60 0 0 -22 -45 -65 -68 -65 -48 0 -82 22 -93 60 -15 49 -4 121 22 149 26
27 78 28 113 0z m136 -95 l0 -115 -26 3 -26 3 1 108 c0 59 0 109 1 112 0 3 11
5 25 5 l25 0 0 -116z m202 11 c21 -55 38 -106 38 -112 0 -22 -51 -15 -57 7 -4
15 -14 20 -37 20 -20 0 -35 -7 -44 -20 -11 -19 -42 -27 -54 -15 -3 3 13 55 35
116 35 95 43 110 60 107 16 -2 29 -26 59 -103z m138 16 l0 -90 39 3 c47 4 64
-5 59 -30 -3 -16 -14 -19 -75 -22 l-72 -3 -3 111 c-2 62 -1 114 1 116 2 2 15
4 28 4 22 0 23 -2 23 -89z m400 64 c0 -23 -3 -25 -50 -25 -43 0 -50 -3 -50
-19 0 -16 8 -20 43 -23 34 -2 42 -7 42 -23 0 -16 -8 -21 -43 -23 -34 -3 -43
-7 -40 -20 3 -13 14 -17 48 -17 42 0 45 -2 48 -27 l3 -28 -75 0 -76 0 0 115 0
115 75 0 c73 0 75 -1 75 -25z m111 -5 c6 -16 15 -30 19 -30 4 0 13 14 19 30 8
24 16 30 40 30 17 0 31 -3 31 -7 0 -3 -14 -28 -31 -54 l-31 -49 23 -37 c12
-21 29 -46 37 -55 13 -16 13 -18 -1 -24 -27 -10 -51 0 -65 29 -17 34 -23 34
-44 -3 -12 -21 -25 -30 -42 -30 -26 0 -43 15 -27 24 5 3 21 26 36 51 l26 46
-30 48 c-32 53 -31 61 6 61 18 0 27 -8 34 -30z m299 10 c20 -20 27 -74 12 -96
-11 -18 -49 -34 -77 -34 -25 0 -26 -3 -23 -37 3 -35 1 -38 -24 -41 l-28 -3 0
115 0 116 60 0 c47 0 64 -4 80 -20z m220 0 c24 -24 26 -62 4 -95 -15 -23 -15
-27 5 -61 24 -40 20 -54 -14 -54 -19 0 -28 10 -44 45 -11 25 -25 45 -30 45 -6
0 -11 -20 -11 -45 0 -41 -2 -45 -25 -45 l-25 0 0 115 0 115 60 0 c47 0 64 -4
80 -20z m230 -5 c0 -23 -4 -25 -45 -25 -38 0 -45 -3 -45 -20 0 -17 7 -20 40
-20 36 0 40 -2 40 -25 0 -22 -4 -25 -40 -25 -32 0 -40 -4 -40 -19 0 -15 7 -18
45 -17 43 1 45 0 45 -27 l0 -28 -72 3 -73 3 -3 99 c-1 55 0 106 2 113 4 9 27
13 76 13 68 0 70 -1 70 -25z m184 14 c21 -10 23 -14 13 -30 -9 -15 -19 -17
-50 -12 -34 5 -39 4 -35 -13 2 -11 15 -21 35 -25 46 -9 63 -26 63 -63 0 -37
-7 -49 -37 -65 -29 -15 -57 -14 -100 4 -34 15 -35 16 -19 34 14 16 22 17 45 8
32 -12 65 -3 59 15 -3 7 -20 16 -39 21 -70 18 -90 67 -44 112 26 27 68 32 109
14z m211 -3 c16 -12 17 -16 6 -30 -10 -12 -23 -14 -52 -10 -32 5 -39 4 -39
-10 0 -9 11 -18 28 -22 70 -15 96 -50 73 -100 -20 -44 -101 -59 -141 -26 -21
17 -22 19 -5 35 13 13 20 15 31 7 19 -16 58 -8 62 13 2 12 -3 17 -18 17 -24 0
-61 17 -72 34 -14 21 -8 66 12 86 24 24 87 27 115 6z m130 -101 c0 -108 0
-110 -23 -110 -23 0 -24 2 -23 108 0 59 0 110 1 113 0 3 10 4 23 2 21 -3 22
-7 22 -113z m195 105 c49 -26 51 -162 3 -200 -30 -24 -54 -25 -92 -5 -36 18
-41 32 -41 106 0 50 4 64 25 84 26 27 72 33 105 15z m182 -47 l33 -58 3 58 c3
53 5 57 27 57 l25 0 0 -115 c0 -93 -3 -115 -14 -115 -22 0 -46 11 -46 21 0 4
-13 29 -29 55 l-30 46 -3 -58 c-3 -52 -6 -59 -25 -62 -23 -3 -23 -2 -23 112
l0 116 24 0 c19 0 32 -12 58 -57z m-5965 -583 c74 -33 108 -117 79 -194 -28
-73 -93 -113 -168 -103 -127 17 -182 171 -95 266 48 52 114 63 184 31z m451
-7 c100 -74 96 -200 -8 -271 -29 -20 -44 -23 -88 -20 -31 3 -64 13 -80 24 -32
24 -72 98 -72 134 0 45 42 113 85 138 49 28 122 26 163 -5z m1050 0 c45 -34
65 -69 70 -125 4 -61 -19 -106 -77 -145 -93 -63 -224 5 -237 123 -10 96 72
179 169 171 27 -2 60 -13 75 -24z m422 4 c53 -28 80 -75 80 -141 0 -96 -76
-164 -171 -153 -27 3 -59 13 -73 23 -95 62 -86 222 16 273 55 27 94 27 148 -2z
m1065 -8 c19 -13 42 -38 50 -56 19 -40 19 -116 0 -153 -50 -97 -208 -104 -270
-12 -32 48 -35 129 -5 177 45 73 152 94 225 44z m420 8 c43 -24 85 -91 85
-137 0 -45 -42 -113 -85 -138 -126 -72 -276 58 -224 195 34 91 139 128 224 80z
m1042 3 c106 -48 120 -195 26 -267 -50 -38 -126 -43 -173 -11 -95 65 -108 180
-28 255 49 46 108 54 175 23z m452 -7 c46 -34 71 -81 71 -133 0 -120 -132
-197 -235 -138 -43 25 -85 93 -85 138 0 14 10 46 23 70 41 83 156 115 226 63z
m1057 -8 c114 -87 65 -266 -78 -282 -58 -7 -108 15 -144 62 -38 51 -41 133 -6
183 54 75 156 92 228 37z m414 12 c109 -57 108 -222 -1 -277 -108 -56 -229 17
-229 136 0 66 27 113 80 141 55 29 95 29 150 0z m1033 9 c18 -7 45 -28 61 -45
39 -41 48 -127 18 -181 -40 -74 -140 -100 -216 -57 -107 60 -104 219 4 275 51
25 87 28 133 8z m472 -20 c41 -32 70 -102 61 -149 -16 -84 -88 -141 -169 -134
-167 15 -202 241 -47 306 40 17 118 5 155 -23z m-440 -559 c55 -30 88 -96 81
-156 -6 -44 -6 -44 14 -26 11 10 20 24 20 31 0 16 48 54 69 54 9 0 25 17 36
38 27 50 94 85 154 79 100 -11 164 -113 131 -211 -11 -35 -13 -36 -64 -36 -45
0 -57 -4 -84 -31 -24 -24 -32 -40 -32 -68 0 -20 -9 -53 -19 -72 -11 -20 -17
-46 -14 -58 6 -24 -21 -41 -39 -23 -7 7 -18 5 -36 -4 -31 -16 -128 -19 -137
-4 -3 5 -21 9 -38 7 -30 -2 -32 0 -35 37 -2 25 0 36 7 31 6 -3 8 -17 5 -30 -3
-13 0 -26 7 -30 9 -6 11 -2 6 14 -4 17 -2 21 8 17 8 -3 17 0 21 6 4 7 3 8 -4
4 -20 -12 -14 46 8 82 25 40 25 45 3 34 -24 -13 -63 3 -63 26 0 10 7 27 16 38
14 18 15 18 4 -4 -7 -13 -9 -26 -6 -30 3 -3 6 0 6 7 0 6 12 24 28 38 15 15 21
23 14 19 -22 -13 -275 -7 -284 7 -4 7 -11 27 -14 45 -26 134 112 236 231 169z
m-2991 -59 c50 -23 93 -43 95 -44 2 -2 3 -21 3 -44 -2 -110 -125 -183 -228
-134 -97 46 -119 178 -42 255 33 32 25 34 172 -33z m515 -11 c54 -108 -21
-227 -142 -227 -81 0 -161 78 -155 153 l3 38 115 53 c132 62 139 61 179 -17z
m-3415 20 c11 -15 21 -48 24 -79 3 -44 0 -59 -20 -87 -36 -52 -71 -74 -130
-79 -44 -3 -59 0 -87 20 -47 32 -72 69 -74 108 -2 32 -1 33 123 91 69 32 129
57 134 56 6 -2 19 -15 30 -30z m334 -34 c110 -51 122 -59 122 -82 0 -61 -83
-131 -155 -131 -51 0 -104 28 -133 71 -20 29 -23 44 -20 96 4 61 25 103 52
103 6 0 66 -25 134 -57z m3919 19 c25 -13 30 -21 23 -32 -16 -24 -11 -55 11
-84 33 -42 100 -31 119 20 9 24 11 24 40 9 37 -19 38 -44 4 -85 -36 -42 -74
-60 -127 -60 -107 0 -185 115 -144 213 18 41 28 44 74 19z m654 -14 c55 -134
-85 -264 -218 -202 -33 16 -83 76 -83 100 0 6 13 17 30 24 28 11 32 10 59 -19
36 -39 73 -40 108 -5 24 24 26 43 9 85 -5 11 3 20 26 31 47 24 54 22 69 -14z
m-6377 -4 c13 -34 6 -109 -14 -138 -44 -68 -135 -94 -206 -60 -67 32 -105 114
-84 180 l12 34 143 0 c121 0 144 -2 149 -16z m440 -31 c7 -35 5 -50 -15 -90
-30 -61 -77 -93 -136 -93 -111 0 -186 99 -157 208 6 22 8 22 153 20 l146 -3 9
-42z m2340 -18 c3 -13 19 -31 36 -40 38 -19 75 -6 98 35 13 23 23 30 42 28 22
-3 25 -7 23 -42 -8 -120 -132 -183 -238 -121 -48 27 -75 75 -75 129 l0 36 54
0 c49 0 54 -2 60 -25z m378 -2 c29 -61 108 -63 131 -3 11 29 14 30 69 30 l58
0 0 -36 c0 -50 -35 -107 -80 -133 -101 -57 -220 4 -236 122 -7 46 -6 47 19 47
18 0 30 -8 39 -27z m5071 -104 c16 10 25 10 43 0 30 -15 30 -22 2 -34 -31 -13
-36 -45 -9 -52 37 -10 11 -23 -44 -23 -59 0 -81 14 -36 23 42 9 54 57 15 57
-11 0 -13 -6 -9 -20 5 -15 2 -20 -14 -20 -11 0 -22 -9 -26 -20 -3 -11 -11 -20
-16 -20 -5 0 -9 9 -9 20 0 12 -7 20 -17 20 -14 0 -11 6 12 25 25 20 27 24 11
25 -19 0 -19 0 0 18 17 16 21 17 48 4 23 -12 33 -13 49 -3z m258 -15 c-35 -29
-37 -39 -16 -60 8 -9 15 -20 15 -25 0 -11 -177 -12 -183 -1 -2 4 2 31 11 60
l15 52 94 0 95 0 -31 -26z m-648 9 c-29 -3 -43 -9 -43 -19 0 -10 12 -14 45
-14 38 0 45 3 45 20 0 11 5 20 11 20 7 0 8 -14 4 -40 l-7 -40 39 -1 c35 0 36
-1 13 -10 -13 -5 -36 -9 -50 -7 -19 2 -24 8 -23 26 2 19 -2 22 -37 22 -29 0
-43 -6 -54 -22 -22 -31 -29 -17 -16 31 l11 41 52 -2 c50 -1 50 -2 10 -5z m188
-9 c16 -14 20 -14 43 2 34 22 44 12 13 -13 -13 -10 -29 -28 -36 -41 -13 -24
-34 -31 -25 -8 3 8 -2 28 -11 45 -17 34 -11 40 16 15z m-8916 -95 c1 -27 -2
-29 -37 -29 -21 0 -38 -4 -38 -9 0 -5 9 -7 20 -4 15 4 20 0 20 -13 0 -13 3
-15 8 -7 5 8 12 9 22 2 12 -7 11 -10 -7 -15 -17 -5 -23 -14 -23 -35 0 -16 5
-29 10 -29 6 0 10 8 10 17 0 16 1 16 18 0 15 -16 15 -19 2 -27 -21 -14 -56
-12 -67 3 -5 6 -9 28 -8 47 l2 35 -12 -30 c-7 -17 -23 -39 -36 -50 -12 -11
-19 -14 -15 -7 5 8 -2 12 -23 12 l-31 0 0 80 0 80 33 0 33 0 -1 -60 c-1 -33 3
-60 7 -60 4 0 8 28 8 63 l0 63 53 0 c51 1 52 0 52 -27z m95 -54 l0 -85 60 0
60 0 0 33 c0 28 -3 32 -29 33 -21 1 -28 -3 -24 -12 3 -9 -2 -14 -12 -14 -11 0
-15 5 -12 14 4 11 1 13 -11 9 -15 -6 -16 -5 -2 13 8 10 19 22 25 26 5 4 6 11
1 15 -5 4 -11 2 -13 -4 -5 -14 -33 -18 -33 -5 1 19 18 28 53 28 36 0 50 -17
27 -31 -13 -8 -3 -25 16 -25 9 0 14 11 14 35 l0 35 -52 1 c-42 1 -48 3 -28 9
14 4 44 8 68 9 l42 1 0 -92 0 -93 -94 0 -94 0 4 40 c1 22 3 64 3 93 1 39 5 52
16 52 12 0 15 -16 15 -85z m388 -8 l-3 -92 -27 -3 c-20 -2 -28 1 -28 12 0 9 5
16 11 16 5 0 7 -5 4 -10 -3 -5 -1 -10 4 -10 6 0 11 8 11 18 0 23 -29 25 -54 3
-18 -15 -18 -15 -6 9 12 23 12 24 -3 11 -10 -7 -17 -10 -17 -6 0 4 -7 2 -15
-5 -18 -15 -18 -10 -5 24 6 17 6 35 0 52 -7 16 -7 23 0 19 6 -3 10 1 10 9 0 9
7 16 16 16 13 0 16 -7 12 -32 -6 -38 -1 -58 14 -58 6 0 8 12 5 27 -5 29 7 63
23 63 5 0 11 -21 13 -47 l3 -48 2 53 2 52 -60 0 -60 0 0 -85 c0 -69 -3 -85
-15 -85 -12 0 -15 17 -15 93 l0 92 90 2 91 2 -3 -92z m782 38 c0 -8 -4 -15
-10 -15 -5 0 -10 7 -10 15 0 8 5 15 10 15 6 0 10 -7 10 -15z m170 0 c0 -8 -4
-15 -10 -15 -5 0 -10 7 -10 15 0 8 5 15 10 15 6 0 10 -7 10 -15z m1630 -50 c0
-37 -4 -65 -10 -65 -6 0 -10 28 -10 65 0 37 4 65 10 65 6 0 10 -28 10 -65z
m-752 -14 c3 -56 -5 -71 -40 -71 -42 0 -58 41 -49 123 1 5 20 7 44 5 l42 -3 3
-54z m65 9 c2 3 10 15 16 28 6 12 16 22 21 22 17 0 11 -36 -10 -63 -11 -14
-20 -35 -20 -47 0 -19 -2 -20 -15 -10 -8 7 -12 16 -9 21 3 5 -4 24 -15 43 -29
46 -26 68 4 31 13 -16 26 -27 28 -25z m6365 22 c25 -2 32 2 32 15 0 15 2 15 9
4 6 -10 27 -15 61 -15 44 0 51 -3 56 -22 9 -36 1 -59 -21 -59 -13 0 -21 8 -23
23 -2 12 -7 22 -12 22 -4 0 -6 -9 -3 -20 6 -23 -22 -39 -39 -22 -8 8 -4 9 12
5 17 -4 21 -2 18 8 -8 23 -45 23 -51 0 -5 -21 -47 -31 -47 -12 0 5 6 8 13 7 6
0 13 4 15 9 1 6 -13 10 -30 10 -34 0 -74 35 -50 43 7 2 12 11 13 20 0 14 1 15
7 2 4 -8 22 -16 40 -18z m-6120 -34 c2 -29 -1 -48 -7 -48 -6 0 -11 16 -11 35
0 28 -4 35 -20 35 -16 0 -20 -7 -20 -35 0 -19 -4 -35 -10 -35 -5 0 -10 23 -10
51 l0 50 38 -3 c37 -3 37 -3 40 -50z m100 40 c7 -7 12 -29 12 -50 0 -37 -1
-38 -37 -38 -47 0 -66 12 -61 36 2 14 15 21 43 25 l40 6 -37 2 c-27 1 -38 6
-38 16 0 19 60 21 78 3z m58 -13 c3 -14 10 -25 14 -25 4 0 11 11 14 25 4 14
13 25 21 25 19 0 19 1 -5 -54 -10 -25 -24 -46 -30 -46 -6 0 -20 21 -30 46 -24
55 -24 54 -5 54 8 0 17 -11 21 -25z m94 -10 c0 -28 4 -35 20 -35 16 0 20 7 20
35 0 19 5 35 10 35 14 0 12 -104 -2 -118 -18 -18 -68 -15 -68 3 0 8 5 15 12
15 9 0 9 3 0 12 -14 14 -16 88 -2 88 6 0 10 -16 10 -35z m109 23 c11 -10 14
-10 18 0 5 13 33 17 33 4 0 -4 -5 -13 -12 -20 -9 -9 -9 -18 0 -37 15 -33 15
-35 -2 -35 -8 0 -16 6 -19 13 -3 9 -8 9 -21 -2 -22 -19 -34 -5 -17 21 9 14 10
23 2 31 -13 13 -15 37 -3 37 4 0 14 -6 21 -12z m199 -41 l3 -48 -48 3 c-44 3
-48 5 -48 28 0 21 6 26 40 31 l40 6 -37 2 c-27 1 -38 5 -38 17 0 12 9 14 43
12 l42 -3 3 -48z m5817 43 c4 -6 10 -8 15 -5 5 3 12 1 15 -5 4 -7 11 -8 18 -2
7 5 32 7 57 3 28 -4 40 -9 32 -14 -15 -10 -7 -27 11 -23 7 1 9 1 5 -1 -5 -3
-8 -11 -8 -19 0 -21 -27 -29 -46 -13 -13 10 -17 10 -25 -2 -7 -11 -9 -11 -9 4
0 16 -13 21 -48 20 -8 -1 -11 5 -7 15 5 14 4 15 -6 5 -7 -7 -24 -13 -37 -13
-19 0 -23 -4 -19 -20 3 -11 0 -20 -6 -20 -13 0 -14 53 -2 83 8 18 50 23 60 7z
m-8383 -37 c4 -49 22 -49 26 0 4 48 27 45 27 -4 0 -50 29 -47 33 4 5 54 22 45
22 -11 l0 -49 -60 3 c-33 2 -65 6 -70 9 -16 10 -12 85 4 85 10 0 16 -13 18
-37z m158 3 c0 -19 4 -37 8 -40 15 -9 28 9 27 38 0 16 6 31 13 34 8 2 12 -9
12 -35 0 -29 4 -40 15 -40 11 0 15 11 15 39 0 27 4 38 15 38 11 0 15 -12 15
-45 0 -40 -3 -45 -22 -46 -13 0 -36 -2 -52 -4 -47 -6 -66 10 -66 55 0 22 5 40
10 40 6 0 10 -15 10 -34z m172 -3 c4 -49 22 -49 26 0 2 24 8 37 15 34 7 -2 11
-15 9 -28 -1 -13 2 -30 7 -38 14 -22 31 -3 31 35 0 19 5 34 10 34 6 0 10 -22
10 -49 l0 -49 -59 2 c-32 2 -63 6 -70 10 -17 11 -14 86 3 86 10 0 16 -13 18
-37z m266 -15 c2 -29 -1 -48 -7 -48 -6 0 -11 18 -11 40 0 35 -3 40 -22 40 -19
0 -23 -6 -24 -31 -1 -16 -6 -35 -13 -42 -8 -8 -11 2 -11 42 l0 52 43 -3 42 -3
3 -47z m52 2 c0 -27 -4 -50 -10 -50 -5 0 -10 23 -10 50 0 28 5 50 10 50 6 0
10 -22 10 -50z m121 29 c20 -39 -10 -78 -54 -70 -5 1 -11 -8 -14 -19 -11 -41
-23 -18 -23 45 l0 65 40 0 c30 0 42 -5 51 -21z m49 -29 c0 -27 -4 -50 -10 -50
-5 0 -10 23 -10 50 0 28 5 50 10 50 6 0 10 -22 10 -50z m110 40 c0 -5 -11 -10
-25 -10 -33 0 -45 -28 -20 -46 10 -7 21 -11 26 -9 4 3 10 1 14 -5 10 -15 -18
-22 -47 -11 -29 11 -39 37 -27 69 7 17 16 22 44 22 19 0 35 -4 35 -10z m150 1
c0 -5 -12 -11 -27 -13 -20 -2 -29 -9 -31 -25 -3 -22 6 -27 46 -26 15 1 16 -13
1 -22 -18 -12 -59 5 -70 29 -17 37 4 66 46 66 19 0 35 -4 35 -9z m104 -7 c18
-17 19 -24 10 -48 -16 -41 -86 -39 -97 3 -12 47 52 81 87 45z m169 4 c8 -22 2
-78 -8 -80 -5 -2 -11 14 -13 35 -4 50 -32 52 -32 2 0 -24 -5 -35 -15 -35 -10
0 -15 11 -15 35 0 24 -5 35 -15 35 -10 0 -15 -10 -15 -34 0 -19 -4 -38 -10
-41 -11 -7 -11 -8 -13 53 l-2 42 66 0 c44 0 68 -4 72 -12z m7333 4 c15 -2 23
-43 13 -68 -7 -17 -8 -17 -8 -1 -1 9 -8 17 -17 17 -11 0 -14 6 -9 20 3 11 2
20 -4 20 -5 0 -11 -15 -13 -32 -4 -40 -34 -51 -46 -17 l-9 23 -5 -22 c-6 -22
-48 -32 -48 -11 0 5 5 7 10 4 19 -12 28 5 17 29 -7 13 -15 22 -19 20 -5 -3 -8
-1 -8 5 0 13 87 21 146 13z m-1265 -34 l14 -33 6 35 6 35 2 -42 c1 -51 -11
-55 -30 -10 l-14 32 -6 -35 -6 -35 -2 43 c-1 50 11 54 30 10z m97 20 c17 -17
15 -43 -4 -59 -31 -26 -70 25 -44 56 15 18 32 19 48 3z m109 -8 c4 -12 3 -13
-5 -1 -6 8 -17 11 -27 8 -10 -4 -14 -3 -10 4 9 14 37 7 42 -11z m359 9 c3 -6
1 -16 -5 -22 -9 -9 -10 -7 -5 7 6 16 4 18 -14 14 -12 -4 -20 -2 -16 3 7 12 31
11 40 -2z m59 -29 c0 -29 -4 -36 -22 -38 -13 -2 -23 1 -23 6 0 6 9 8 20 5 14
-4 20 0 20 11 0 9 -6 16 -12 17 -10 0 -10 2 0 6 20 8 14 26 -8 20 -11 -3 -17
-1 -14 4 3 6 13 9 22 7 12 -2 17 -14 17 -38z m723 12 c4 -24 -13 -52 -31 -52
-6 0 -2 7 9 15 17 13 17 14 2 15 -21 0 -32 16 -24 36 9 23 40 12 44 -14z
m-6900 -21 c3 -8 -1 -12 -9 -9 -7 2 -15 10 -17 17 -3 8 1 12 9 9 7 -2 15 -10
17 -17z m-2313 -11 c3 -5 -3 -10 -14 -10 -12 0 -21 5 -21 10 0 6 6 10 14 10 8
0 18 -4 21 -10z m935 -10 c0 -5 -7 -10 -15 -10 -8 0 -15 5 -15 10 0 6 7 10 15
10 8 0 15 -4 15 -10z m480 -6 c0 -8 -4 -12 -10 -9 -5 3 -10 10 -10 16 0 5 5 9
10 9 6 0 10 -7 10 -16z m6653 -1 c-7 -2 -21 -2 -30 0 -10 3 -4 5 12 5 17 0 24
-2 18 -5z m360 0 c-7 -2 -21 -2 -30 0 -10 3 -4 5 12 5 17 0 24 -2 18 -5z m120
0 c-7 -2 -21 -2 -30 0 -10 3 -4 5 12 5 17 0 24 -2 18 -5z m300 0 c-7 -2 -21
-2 -30 0 -10 3 -4 5 12 5 17 0 24 -2 18 -5z m-6535 -22 c3 -8 -1 -12 -9 -9 -7
2 -15 10 -17 17 -3 8 1 12 9 9 7 -2 15 -10 17 -17z"/>
<path d="M2750 1715 c0 -27 26 -35 47 -14 17 17 4 39 -23 39 -19 0 -24 -5 -24
-25z"/>
<path d="M3645 1677 c-8 -19 -2 -31 13 -26 5 2 6 13 2 24 -7 19 -8 19 -15 2z"/>
<path d="M4147 1670 c-4 -15 0 -20 13 -20 13 0 17 5 13 20 -3 11 -9 20 -13 20
-4 0 -10 -9 -13 -20z"/>
<path d="M4707 1680 c-7 -26 -4 -34 11 -29 4 2 5 15 2 29 l-6 25 -7 -25z"/>
<path d="M5632 1718 c4 -31 53 -34 53 -3 0 15 -8 21 -28 23 -25 3 -28 0 -25
-20z"/>
<path d="M5850 1715 c0 -27 10 -31 40 -15 25 14 15 40 -16 40 -19 0 -24 -5
-24 -25z"/>
<path d="M6821 1726 c-18 -22 -10 -97 12 -110 14 -9 21 -7 31 6 13 17 14 87 1
107 -9 15 -30 14 -44 -3z"/>
<path d="M1015 1026 c-32 -49 11 -107 68 -92 15 3 30 18 37 36 10 25 10 34 -4
55 -23 35 -79 35 -101 1z"/>
<path d="M1394 1025 c-14 -21 -14 -30 -4 -55 22 -53 88 -53 110 0 18 43 -7 80
-55 80 -26 0 -39 -6 -51 -25z"/>
<path d="M2446 1104 c-33 -32 -4 -104 42 -104 32 0 62 29 62 60 0 36 -24 60
-60 60 -16 0 -36 -7 -44 -16z"/>
<path d="M2850 1090 c-49 -49 7 -120 75 -94 37 15 38 82 1 106 -20 14 -56 8
-76 -12z"/>
<path d="M4015 1006 c-30 -30 -32 -59 -5 -86 40 -40 103 -12 103 46 0 29 -17
49 -50 59 -17 4 -29 -1 -48 -19z"/>
<path d="M4418 998 c-20 -16 -24 -35 -15 -70 13 -49 81 -52 107 -5 13 24 13
30 0 55 -18 31 -64 41 -92 20z"/>
<path d="M5374 1035 c-19 -29 -11 -60 22 -81 20 -14 29 -14 54 -4 38 16 48 51
26 85 -23 35 -79 35 -102 0z"/>
<path d="M5830 1057 c-35 -18 -46 -41 -34 -74 22 -64 114 -48 114 21 0 48 -39
74 -80 53z"/>
<path d="M7005 1048 c-30 -24 -32 -61 -5 -88 39 -39 100 -12 100 44 0 54 -52
78 -95 44z"/>
<path d="M7440 1057 c-37 -18 -41 -80 -7 -102 68 -44 134 45 71 94 -31 24 -31
25 -64 8z"/>
<path d="M8382 1114 c-45 -31 -19 -104 37 -104 55 0 80 61 41 100 -24 24 -48
25 -78 4z"/>
<path d="M8900 1010 c-11 -11 -20 -31 -20 -45 0 -29 32 -65 58 -65 34 0 62 29
62 65 0 57 -60 85 -100 45z"/>
<path d="M8897 515 c-16 -15 -34 -22 -45 -19 -12 4 -13 3 -4 -3 9 -7 6 -13
-13 -23 -14 -7 -25 -17 -25 -22 0 -5 4 -7 8 -4 5 3 8 -5 8 -17 -2 -55 88 10
98 71 3 20 4 37 3 38 -1 1 -14 -8 -30 -21z m-32 -55 c3 -5 -1 -10 -10 -10 -9
0 -13 5 -10 10 3 6 8 10 10 10 2 0 7 -4 10 -10z"/>
<path d="M8450 480 c-11 -11 -20 -29 -20 -40 0 -28 35 -60 65 -60 29 0 65 32
65 58 0 55 -70 82 -110 42z"/>
<path d="M8910 444 c-54 -51 -61 -64 -31 -64 21 0 64 47 56 60 -3 5 7 18 21
29 15 12 21 21 15 21 -7 0 -34 -21 -61 -46z m-10 -34 c-6 -11 -13 -20 -16 -20
-2 0 0 9 6 20 6 11 13 20 16 20 2 0 0 -9 -6 -20z"/>
<path d="M8688 443 c6 -3 12 -11 12 -19 0 -17 12 -18 28 -2 20 20 14 27 -20
26 -18 -1 -27 -3 -20 -5z"/>
<path d="M8779 399 c-10 -25 -15 -29 -23 -18 -13 17 -36 23 -36 10 0 -6 -10
-8 -21 -6 -12 3 -19 2 -16 -2 3 -3 0 -12 -8 -20 -8 -8 -15 -19 -15 -26 0 -6 6
-4 13 5 6 8 23 18 37 21 23 6 23 5 -7 -19 -18 -14 -33 -33 -32 -42 0 -14 2
-14 6 -2 9 23 72 79 78 69 8 -12 -21 -66 -42 -79 -12 -7 -13 -10 -3 -7 8 2 28
23 45 48 24 33 40 46 66 50 l34 6 -33 2 c-29 1 -32 4 -27 21 10 31 -1 23 -16
-11z"/>
<path d="M8625 320 c-9 -16 -13 -30 -11 -30 3 0 12 14 21 30 9 17 13 30 11 30
-3 0 -12 -13 -21 -30z"/>
<path d="M8770 331 c0 -10 -13 -33 -30 -51 -24 -26 -28 -35 -19 -51 8 -15 5
-24 -15 -44 -30 -30 -19 -34 12 -5 12 12 22 28 22 36 0 9 5 13 13 10 6 -3 20
-9 30 -12 12 -4 16 -13 12 -25 -4 -11 -2 -19 4 -19 6 0 11 6 11 13 0 9 2 9 8
0 4 -6 6 11 6 38 -2 67 -3 71 -13 65 -5 -3 -9 0 -8 7 1 38 -5 57 -18 57 -8 0
-15 -9 -15 -19z"/>
<path d="M8639 293 c0 -5 -2 -25 -5 -46 -5 -40 9 -77 29 -77 8 0 9 3 1 8 -21
14 -25 45 -7 64 14 16 15 21 4 27 -8 5 -10 14 -7 20 4 6 2 11 -3 11 -6 0 -11
-3 -12 -7z"/>
<path d="M8774 128 l-19 -23 23 19 c12 11 22 21 22 23 0 8 -8 2 -26 -19z"/>
<path d="M8605 120 c-3 -6 1 -7 9 -4 18 7 21 14 7 14 -6 0 -13 -4 -16 -10z"/>
<path d="M8802 118 c6 -18 28 -21 28 -4 0 9 -7 16 -16 16 -9 0 -14 -5 -12 -12z"/>
<path d="M5477 462 c-37 -40 -7 -102 49 -102 46 0 72 71 38 104 -21 22 -67 20
-87 -2z"/>
<path d="M5857 462 c-34 -38 -8 -102 42 -102 52 0 82 68 45 104 -21 22 -67 20
-87 -2z"/>
<path d="M2500 465 c-31 -37 0 -105 47 -105 52 0 82 69 45 103 -23 21 -75 22
-92 2z"/>
<path d="M2886 464 c-36 -35 -7 -104 42 -104 29 0 62 34 62 63 0 49 -70 76
-104 41z"/>
<path d="M1017 462 c-37 -40 -7 -102 49 -102 27 0 54 30 54 62 0 51 -69 78
-103 40z"/>
<path d="M1397 462 c-37 -40 -7 -102 49 -102 46 0 72 71 38 104 -21 22 -67 20
-87 -2z"/>
<path d="M9574 331 c10 -16 45 -19 63 -5 16 12 13 13 -25 14 -24 0 -41 -4 -38
-9z"/>
<path d="M9527 314 c-4 -4 -7 -18 -7 -30 0 -20 3 -22 23 -15 25 9 30 44 7 49
-9 1 -19 0 -23 -4z"/>
<path d="M9575 259 c-15 -6 -11 -8 18 -8 20 -1 37 1 37 3 0 9 -37 12 -55 5z"/>
<path d="M220 225 c0 -8 9 -15 19 -15 10 0 21 7 25 15 4 11 -1 15 -19 15 -16
0 -25 -6 -25 -15z"/>
<path d="M133 224 c3 -4 2 -14 -3 -23 -6 -13 -4 -17 11 -17 11 0 15 4 10 9 -5
5 -7 16 -4 23 3 8 -1 14 -8 14 -7 0 -9 -3 -6 -6z"/>
<path d="M143 158 c-12 -15 -13 -49 -3 -43 7 4 20 55 15 55 -1 0 -7 -6 -12
-12z"/>
<path d="M2547 174 c-9 -10 2 -24 19 -24 8 0 14 7 14 15 0 15 -21 21 -33 9z"/>
<path d="M2547 123 c-13 -12 -7 -23 13 -23 11 0 20 7 20 15 0 15 -21 21 -33 8z"/>
<path d="M9100 150 c-13 -8 -12 -10 3 -10 9 0 17 5 17 10 0 12 -1 12 -20 0z"/>
<path d="M9162 118 c6 -18 28 -21 28 -4 0 9 -7 16 -16 16 -9 0 -14 -5 -12 -12z"/>
<path d="M9252 163 c4 -24 24 -27 24 -3 0 11 -6 20 -14 20 -7 0 -12 -8 -10
-17z"/>
<path d="M9376 135 c4 -8 8 -15 10 -15 2 0 4 7 4 15 0 8 -4 15 -10 15 -5 0 -7
-7 -4 -15z"/>
<path d="M9406 123 c-11 -11 -6 -23 9 -23 8 0 15 4 15 9 0 13 -16 22 -24 14z"/>
<path d="M1618 153 c-2 -4 -3 -14 -2 -20 1 -7 2 -17 3 -22 0 -5 10 -7 22 -4
13 4 19 12 17 27 -3 21 -32 35 -40 19z"/>
<path d="M2034 146 c-8 -21 3 -36 27 -36 15 0 20 6 17 22 -4 27 -35 37 -44 14z"/>
<path d="M9505 159 c-4 -6 -5 -12 -2 -15 2 -3 7 2 10 11 7 17 1 20 -8 4z"/>
<path d="M9526 122 c-3 -6 -1 -14 5 -17 15 -10 25 3 12 16 -7 7 -13 7 -17 1z"/>
<path d="M8384 146 c-9 -24 4 -48 23 -44 12 2 18 12 18 28 0 29 -32 41 -41 16z"/>
<path d="M9642 149 c2 -7 10 -15 17 -17 8 -3 12 1 9 9 -2 7 -10 15 -17 17 -8
3 -12 -1 -9 -9z"/>
</g>
</svg>
